<?xml version="1.0" encoding="UTF-8"?>
<svg xmlns="http://www.w3.org/2000/svg" viewBox="0 0 512 512" width="512" height="512">
  <title>oc-oxide inactive</title>
  <!-- Inactive tray icon variant. Background is intentionally transparent. -->
  <defs>
    <path id="cloud-shape" d="M17,9a4.08,4.08,0,0,0-.93.12,5,5,0,0,0-9,2.09A3,3,0,1,0,6,17H17a4,4,0,0,0,0-8Z" />
    <path id="cloud-left-shape" d="M27.873 28c0 0 5.52 0.006 6.295-5.395 0.369-5.906-5.336-7.070-5.336-7.070s0.649-8.743-7.361-9.74c-6.865-0.701-8.954 5.679-8.954 5.679s-2.068-1.988-4.873-0.364c-2.511 1.55-2.067 4.388-2.067 4.388s-5.577 1.084-5.577 6.768c0.125 5.677 6.057 5.734 6.057 5.734" />
    <path id="cloud-back-shape" d="M94.547 146.879C80.076 146.879 61.32 146.784 49.215 146.784C27.449 146.784 25.018 117.618 42.527 111.295C42.427 96.6411 51.875 81.8691 71.058 81.8691C85.054 81.8691 94.163 89.6751 98.095 99.5651C126.441 102.477 126.785 146.879 94.547 146.879Z" />
  </defs>
  <use id="cloud-back-left" href="#cloud-left-shape" transform="translate(20.0 76.3) scale(8.040936 6.837838)" fill="#8f9aa3" opacity="0.92" />
  <use id="cloud-back-right" href="#cloud-back-shape" transform="translate(284.7 102.4) scale(1.240426 1.327189)" fill="#6f7a83" opacity="0.86" />
  <g id="paper-plane" transform="matrix(0.369785 0 0 0.369785 -123.622 -126.195)">
    <path transform="translate(0,0)" fill="#f5f7f8" d="M 650.752 1116.86 C 645.361 1110.31 622.311 1096.01 614.127 1090.67 L 511.691 1023.66 C 505.288 1019.39 480.649 1003.61 476.521 999.616 C 478.008 997.264 479.845 996.335 482.436 995.416 C 571.911 963.706 662.528 935.617 752.64 905.876 L 1187.96 762.905 L 1387.97 697.675 C 1422.39 686.489 1455.4 676.929 1489.89 664.734 C 1459.6 712.084 1427.08 769.567 1398.91 818.334 L 1291.9 1000.23 C 1274.11 1029.9 1253.06 1060.63 1234 1089.53 L 1145.22 1224.48 L 1080.35 1323.8 C 1070.76 1338.3 1058.85 1357.51 1048.53 1370.9 C 1035.06 1364.07 1008.88 1345.84 994.935 1336.66 L 914.351 1284.53 C 909.861 1281.62 891.307 1268.35 887.93 1267.72 C 874.689 1273.47 857.125 1289.63 845.829 1295.8 C 829.028 1304.96 751.295 1365.48 738.016 1367.17 C 735.909 1364.66 735.893 1363.6 735.121 1360.46 C 731.583 1348.7 726.123 1334.28 722.071 1322.43 L 684.36 1214.16 L 664.238 1153.4 C 661.105 1143.96 655.153 1124.95 650.752 1116.86 z" />
    <path transform="translate(0,0)" fill="#d9e0e5" d="M 1466.46 679.063 C 1448.64 694.314 1406.82 719.969 1385.5 734.408 L 1220.55 846.596 C 1187.16 869.169 1151.94 895.42 1118.08 918.763 L 832.077 1116.4 C 809.624 1132.16 771.181 1157.96 746.977 1174.01 C 746.859 1174.49 746.74 1174.97 746.622 1175.45 C 772.256 1193.01 799.383 1209.39 825.315 1226.58 C 839.429 1236.05 853.627 1245.39 867.907 1254.6 C 873.444 1258.22 882.451 1264.75 887.93 1267.72 C 874.689 1273.47 857.125 1289.63 845.829 1295.8 C 829.028 1304.96 751.295 1365.48 738.016 1367.17 C 735.909 1364.66 735.893 1363.6 735.121 1360.46 C 731.583 1348.7 726.123 1334.28 722.071 1322.43 L 684.36 1214.16 L 664.238 1153.4 C 661.105 1143.96 655.153 1124.95 650.752 1116.86 C 686.035 1095.86 729.214 1074.37 765.881 1054.46 L 1063.3 895.533 L 1344.1 744.474 C 1384.94 722.645 1424.56 699.318 1466.46 679.063 z" />
    <path transform="translate(0,0)" fill="#b6c0c8" d="M 746.622 1175.45 C 772.256 1193.01 799.383 1209.39 825.315 1226.58 C 839.429 1236.05 853.627 1245.39 867.907 1254.6 C 873.444 1258.22 882.451 1264.75 887.93 1267.72 C 874.689 1273.47 857.125 1289.63 845.829 1295.8 C 829.028 1304.96 751.295 1365.48 738.016 1367.17 C 735.909 1364.66 735.893 1363.6 735.121 1360.46 C 736.179 1358.71 737.918 1355.8 738.084 1353.69 C 741.225 1313.68 741.598 1273.16 743.873 1233.07 C 744.909 1214.8 743.851 1193.21 746.622 1175.45 z" />
  </g>
  <use id="cloud-front" href="#cloud-shape" transform="translate(210.0 172.2) scale(13.333333 12.222222)" fill="#aab3bc" opacity="1.00" />
</svg>
